<svg xmlns="http://www.w3.org/2000/svg" height="48" width="48" xmlns:v="https://vecta.io/nano"><defs><linearGradient id="A" x1="3.217" y1="15" x2="44.781" y2="15" gradientUnits="userSpaceOnUse"><stop offset="0" stop-color="#d93025"/><stop offset="1" stop-color="#ea4335"/></linearGradient><linearGradient id="B" x1="20.722" y1="47.679" x2="41.504" y2="11.684" gradientUnits="userSpaceOnUse"><stop offset="0" stop-color="#fcc934"/><stop offset="1" stop-color="#fbbc04"/></linearGradient><linearGradient id="C" x1="26.598" y1="46.502" x2="5.816" y2="10.506" gradientUnits="userSpaceOnUse"><stop offset="0" stop-color="#1e8e3e"/><stop offset="1" stop-color="#34a853"/></linearGradient></defs><circle cx="24" cy="23.995" r="12" fill="#fff"/><path d="M24 12h20.781a23.994 23.994 0 0 0-41.564.003L13.608 30l.009-.002A11.985 11.985 0 0 1 24 12z" fill="url(#A)"/><circle cx="24" cy="24" r="9.5" fill="#1a73e8"/><path d="M34.391 30.003L24.001 48A23.994 23.994 0 0 0 44.78 12.003H23.999l-.003.009a11.985 11.985 0 0 1 10.395 17.991z" fill="url(#B)"/><path d="M13.609 30.003L3.218 12.006A23.994 23.994 0 0 0 24.003 48l10.391-17.997-.007-.007a11.985 11.985 0 0 1-20.778.007z" fill="url(#C)"/></svg>